<svg width="3611" height="650" viewBox="0 0 3611 650" fill="none" xmlns="http://www.w3.org/2000/svg">
<path d="M177.653 5.3668L218.444 260.844C220.949 276.946 223.095 294.658 224.885 313.979C227.031 332.943 228.82 353.696 230.252 376.239C231.325 393.414 232.041 408.263 232.399 420.786C233.114 432.952 233.651 445.296 234.009 457.82C234.367 469.985 234.903 485.013 235.619 502.904C235.977 513.638 236.156 524.015 236.156 534.033V563.553H246.89C246.89 543.873 247.069 523.657 247.427 502.904C248.142 482.151 248.858 461.04 249.574 439.571C250.289 417.029 251.363 395.739 252.794 375.702C254.225 355.307 256.014 335.269 258.161 315.589C259.234 305.929 260.308 296.625 261.381 287.68C262.455 278.377 263.707 269.432 265.138 260.844L305.392 5.3668H483.046V644.061H356.917V568.383C356.917 540.474 357.633 509.702 359.064 476.068C360.495 442.076 362.463 409.157 364.968 377.312C367.472 343.32 370.156 309.686 373.019 276.409C375.881 243.133 379.101 210.214 382.679 177.653C384.111 161.552 385.721 145.808 387.51 130.422C388.941 115.036 390.372 100.187 391.804 85.8744H381.069C378.922 108.059 376.597 128.991 374.092 148.67C371.587 168.35 368.904 188.209 366.041 208.246C363.537 228.283 360.674 250.468 357.454 274.799C354.591 295.194 351.192 317.021 347.256 340.278C343.678 363.536 339.921 386.615 335.985 409.515C332.049 432.415 328.292 453.526 324.714 472.848C321.851 488.591 318.989 503.977 316.126 519.005C312.906 534.033 309.865 548.704 307.002 563.016L289.827 644.061H193.218L176.043 563.016C171.749 541.548 167.635 521.331 163.699 502.367C160.121 483.403 156.543 463.902 152.964 443.865C149.386 423.47 145.629 400.57 141.693 375.165C135.253 336.521 129.528 300.382 124.518 266.748C119.509 232.756 115.573 202.879 112.711 177.116C110.564 161.373 108.596 145.808 106.807 130.422C105.018 115.036 103.407 100.187 101.976 85.8744H91.2419C94.1044 113.426 97.1458 143.124 100.366 174.97C103.586 206.815 106.807 240.628 110.027 276.409C112.174 302.172 113.963 325.25 115.394 345.646C117.183 366.041 118.793 386.436 120.225 406.831C121.656 427.227 122.908 450.306 123.982 476.068C125.413 507.913 126.129 538.685 126.129 568.383V644.061H-7.92868e-05V5.3668H177.653ZM973.89 408.978V448.159H647.566C649.713 458.893 653.112 468.912 657.764 478.215C662.773 487.16 668.319 494.853 674.402 501.294C681.201 508.45 688.357 514.354 695.871 519.005C703.385 523.657 712.509 527.235 723.243 529.74C727.895 531.171 732.725 532.244 737.735 532.96C743.102 533.676 748.648 534.033 754.373 534.033C771.548 534.033 787.292 531.171 801.604 525.446C815.917 519.721 827.546 511.67 836.491 501.294C838.638 498.789 840.606 496.105 842.395 493.243C844.184 490.38 845.794 487.518 847.225 484.655H970.133C965.124 506.84 957.789 526.162 948.128 542.621C938.467 559.08 927.733 572.856 915.925 583.948C902.328 597.545 886.942 609.174 869.767 618.835C852.95 628.496 834.523 636.01 814.485 641.377C804.824 643.882 794.806 645.85 784.429 647.281C774.053 648.712 763.497 649.428 752.763 649.428C725.211 649.428 700.165 645.492 677.622 637.62C655.438 629.39 635.58 618.477 618.047 604.88C579.761 575.54 553.462 536.359 539.149 487.339C531.993 463.008 528.415 436.888 528.415 408.978C528.415 382.142 532.172 356.38 539.686 331.691C547.2 307.002 557.756 284.997 571.352 265.675C585.307 245.995 601.587 229.178 620.194 215.223C639.158 201.269 659.911 190.534 682.453 183.02C705.353 175.506 729.147 171.749 753.836 171.749C777.81 171.749 801.246 175.864 824.146 184.094C847.046 191.966 867.263 203.058 884.795 217.37C903.044 232.398 918.787 249.573 932.027 268.895C945.623 288.217 956 310.043 963.156 334.375C970.312 357.99 973.89 382.858 973.89 408.978ZM649.713 367.651H855.276C849.551 348.687 839.89 332.407 826.293 318.81C813.054 305.571 797.489 296.268 779.599 290.9C774.947 289.827 770.296 288.933 765.644 288.217C760.993 287.501 756.162 287.143 751.153 287.143C732.904 287.143 715.372 291.974 698.554 301.635C692.472 305.213 686.031 310.222 679.233 316.663C672.792 323.104 666.888 331.154 661.521 340.815C656.512 349.76 652.576 358.706 649.713 367.651ZM1014.08 644.061V177.116H1134.84V644.061H1014.08ZM1007.64 74.6033C1007.64 59.2174 1011.93 45.4417 1020.52 33.2761C1024.1 27.5511 1028.75 22.5418 1034.48 18.248C1040.56 13.9543 1046.82 10.9129 1053.26 9.12381C1060.06 6.97697 1067.22 5.90354 1074.73 5.90354C1081.89 5.90354 1088.86 6.97697 1095.66 9.12381C1102.46 10.9129 1108.9 13.9543 1114.98 18.248C1126.43 26.8355 1134.31 38.1066 1138.6 52.0612C1140.75 59.2174 1141.82 66.7315 1141.82 74.6033C1141.82 94.283 1135.56 110.921 1123.03 124.518C1110.51 138.115 1094.41 144.913 1074.73 144.913C1059.34 144.913 1046.11 140.441 1035.01 131.495C1029.29 127.202 1024.46 122.371 1020.52 117.004C1016.59 111.279 1013.37 104.481 1010.86 96.6087C1008.71 89.8103 1007.64 82.4752 1007.64 74.6033ZM1360.37 316.663V296.268C1360.37 279.451 1349.81 271.042 1328.7 271.042C1310.45 271.042 1301.33 279.808 1301.33 297.341C1301.33 299.13 1301.51 301.098 1301.87 303.245C1302.22 305.034 1303.48 307.36 1305.62 310.222C1307.77 313.8 1311.17 318.094 1315.82 323.104C1320.47 327.755 1326.38 333.122 1333.53 339.205C1337.11 342.425 1341.23 346.003 1345.88 349.939C1350.89 353.875 1356.43 357.99 1362.52 362.284C1382.2 377.67 1398.12 390.372 1410.28 400.391C1422.45 410.41 1434.08 421.323 1445.17 433.131C1453.4 442.076 1460.38 451.558 1466.1 461.577C1471.83 471.238 1475.76 480.72 1477.91 490.023C1480.06 500.041 1481.13 510.418 1481.13 521.152C1481.13 562.658 1467.89 594.504 1441.41 616.688C1415.29 638.514 1377.01 649.428 1326.56 649.428C1287.2 649.428 1255.17 642.45 1230.48 628.496C1216.17 620.624 1205.08 611.142 1197.21 600.05C1189.69 588.6 1184.5 577.686 1181.64 567.31C1177.35 552.997 1175.2 537.969 1175.2 522.226V480.362H1279.86V511.491C1279.86 521.152 1282.37 529.024 1287.38 535.107C1290.6 539.401 1293.46 542.442 1295.96 544.231C1298.83 545.662 1302.58 546.915 1307.23 547.988C1309.38 548.704 1311.53 549.24 1313.67 549.598C1316.18 549.956 1318.68 550.135 1321.19 550.135C1325.48 550.135 1329.42 549.777 1333 549.062C1336.93 548.346 1341.23 546.736 1345.88 544.231C1352.32 540.653 1356.61 535.644 1358.76 529.203C1359.83 524.909 1360.37 521.331 1360.37 518.469C1360.37 514.891 1359.83 511.312 1358.76 507.734C1357.69 504.156 1355.72 500.399 1352.85 496.463C1350.35 493.243 1345.88 488.77 1339.44 483.045C1333.35 477.32 1327.27 471.953 1321.19 466.944C1317.25 463.723 1312.96 460.324 1308.31 456.746C1303.66 453.168 1298.47 449.232 1292.74 444.938C1275.93 432.057 1260.72 419.892 1247.12 408.442C1233.88 396.992 1223.15 386.436 1214.92 376.775C1206.33 366.757 1199.53 357.275 1194.52 348.329C1189.51 339.384 1185.94 329.902 1183.79 319.883C1181.64 310.222 1180.57 300.204 1180.57 289.827C1180.57 211.108 1228.52 171.749 1324.41 171.749C1342.3 171.749 1358.94 173.359 1374.32 176.58C1390.07 179.442 1403.31 183.736 1414.04 189.461C1436.58 201.984 1451.79 219.696 1459.66 242.596C1463.24 253.688 1465.03 266.748 1465.03 281.776V316.663H1360.37ZM1663.68 64.4057V95.5353C1663.68 135.252 1647.75 163.162 1615.91 179.263V187.851C1631.65 180.694 1648.65 177.116 1666.9 177.116H1752.24V289.827H1663.68V512.565C1663.68 523.299 1669.04 528.666 1679.78 528.666H1752.24L1757.6 644.061H1650.26C1635.95 644.061 1623.07 642.629 1611.62 639.767C1600.17 636.904 1590.15 632.611 1581.56 626.886C1572.97 621.876 1565.82 614.899 1560.09 605.954C1554.37 597.008 1550.07 587.169 1547.21 576.434C1544.35 564.984 1542.92 552.103 1542.92 537.79V289.827H1499.98V177.116H1542.92V64.4057H1663.68ZM2213.48 408.978V448.159H1887.15C1889.3 458.893 1892.7 468.912 1897.35 478.215C1902.36 487.16 1907.91 494.853 1913.99 501.294C1920.79 508.45 1927.94 514.354 1935.46 519.005C1942.97 523.657 1952.1 527.235 1962.83 529.74C1967.48 531.171 1972.31 532.244 1977.32 532.96C1982.69 533.676 1988.23 534.033 1993.96 534.033C2011.13 534.033 2026.88 531.171 2041.19 525.446C2055.5 519.721 2067.13 511.67 2076.08 501.294C2078.22 498.789 2080.19 496.105 2081.98 493.243C2083.77 490.38 2085.38 487.518 2086.81 484.655H2209.72C2204.71 506.84 2197.38 526.162 2187.71 542.621C2178.05 559.08 2167.32 572.856 2155.51 583.948C2141.91 597.545 2126.53 609.174 2109.35 618.835C2092.54 628.496 2074.11 636.01 2054.07 641.377C2044.41 643.882 2034.39 645.85 2024.02 647.281C2013.64 648.712 2003.08 649.428 1992.35 649.428C1964.8 649.428 1939.75 645.492 1917.21 637.62C1895.02 629.39 1875.17 618.477 1857.63 604.88C1819.35 575.54 1793.05 536.359 1778.74 487.339C1771.58 463.008 1768 436.888 1768 408.978C1768 382.142 1771.76 356.38 1779.27 331.691C1786.79 307.002 1797.34 284.997 1810.94 265.675C1824.89 245.995 1841.17 229.178 1859.78 215.223C1878.74 201.269 1899.5 190.534 1922.04 183.02C1944.94 175.506 1968.73 171.749 1993.42 171.749C2017.4 171.749 2040.83 175.864 2063.73 184.094C2086.63 191.966 2106.85 203.058 2124.38 217.37C2142.63 232.398 2158.37 249.573 2171.61 268.895C2185.21 288.217 2195.59 310.043 2202.74 334.375C2209.9 357.99 2213.48 382.858 2213.48 408.978ZM1889.3 367.651H2094.86C2089.14 348.687 2079.48 332.407 2065.88 318.81C2052.64 305.571 2037.08 296.268 2019.19 290.9C2014.53 289.827 2009.88 288.933 2005.23 288.217C2000.58 287.501 1995.75 287.143 1990.74 287.143C1972.49 287.143 1954.96 291.974 1938.14 301.635C1932.06 305.213 1925.62 310.222 1918.82 316.663C1912.38 323.104 1906.47 331.154 1901.11 340.815C1896.1 349.76 1892.16 358.706 1889.3 367.651ZM2253.67 177.116H2374.43C2374.43 181.052 2374.07 184.63 2373.36 187.851C2372.64 190.713 2371.39 194.649 2369.6 199.658C2367.81 205.026 2366.74 208.246 2366.38 209.319C2366.02 210.393 2365.31 211.645 2364.23 213.076C2363.52 214.15 2361.91 217.728 2359.4 223.811C2357.61 227.747 2355.47 231.325 2352.96 234.545L2359.4 239.912C2365.13 231.325 2370.67 223.811 2376.04 217.37C2381.76 210.93 2388.92 204.668 2397.51 198.585C2411.82 188.566 2429 182.126 2449.03 179.263C2458.34 177.832 2469.07 177.116 2481.24 177.116H2502.17L2496.8 292.511H2462.99C2434.72 292.511 2413.07 296.983 2398.04 305.929C2382.3 315.589 2374.43 328.828 2374.43 345.646V644.061H2253.67V177.116ZM2563.94 644.061V289.827H2521V177.116H2603.65V168.529C2596.5 165.666 2589.7 161.909 2583.26 157.258C2577.18 152.248 2571.99 147.239 2567.69 142.23C2558.03 131.138 2551.41 118.435 2547.84 104.123C2546.76 100.545 2546.05 96.9666 2545.69 93.3885C2545.33 89.4525 2545.15 85.5166 2545.15 81.5807C2545.15 68.3416 2547.12 57.6073 2551.06 49.3776C2555.35 41.148 2559.64 34.7074 2563.94 30.0558C2570.02 23.2574 2577.53 17.7113 2586.48 13.4176C2595.42 9.12383 2605.8 5.72463 2617.61 3.21996C2623.33 2.14652 2629.42 1.43088 2635.86 1.07305C2642.3 0.35744 2649.1 -0.00036739 2656.25 -0.00036739H2778.62L2773.26 115.394H2695.43C2687.92 115.394 2681.84 117.004 2677.18 120.224C2674.32 122.371 2672.17 124.518 2670.74 126.665C2669.31 128.812 2668.06 131.674 2666.99 135.252C2665.91 138.115 2665.38 141.693 2665.38 145.987C2665.38 153.859 2667.17 160.12 2670.74 164.772C2674.32 170.139 2679.15 173.717 2685.23 175.506C2687.74 176.58 2691.14 177.116 2695.43 177.116H2773.26V289.827H2684.7V644.061H2563.94ZM3022.56 649.428C2995.36 649.428 2969.96 645.313 2946.34 637.083C2922.73 628.496 2901.62 617.046 2883.01 602.733C2863.69 588.421 2846.69 571.604 2832.02 552.282C2817.71 532.96 2806.44 510.418 2798.21 484.655C2790.34 461.04 2786.4 435.814 2786.4 408.978C2786.4 383.216 2790.34 358.348 2798.21 334.375C2806.08 310.401 2817.17 288.575 2831.49 268.895C2846.51 248.5 2863.87 231.146 2883.55 216.833C2903.59 202.521 2924.87 191.608 2947.42 184.094C2959.22 180.158 2971.39 177.116 2983.91 174.97C2996.44 172.823 3009.32 171.749 3022.56 171.749C3047.96 171.749 3072.65 175.864 3096.62 184.094C3120.96 192.323 3142.78 203.416 3162.1 217.37C3181.07 231.683 3197.89 248.858 3212.56 268.895C3227.58 288.575 3239.03 310.401 3246.91 334.375C3250.48 346.182 3253.35 358.348 3255.49 370.871C3257.64 383.395 3258.71 396.097 3258.71 408.978C3258.71 430.447 3255.31 453.526 3248.52 478.215C3242.07 502.904 3230.27 527.235 3213.09 551.208C3198.78 571.246 3181.6 588.6 3161.57 603.27C3141.53 617.94 3120.06 629.211 3097.16 637.083C3085.35 641.019 3073.19 644.061 3060.66 646.207C3048.14 648.354 3035.44 649.428 3022.56 649.428ZM3023.09 534.033C3034.9 534.033 3046.71 532.066 3058.52 528.13C3070.68 524.194 3081.42 518.29 3090.72 510.418C3102.53 501.115 3111.65 491.096 3118.09 480.362C3124.89 469.27 3129.54 459.072 3132.05 449.769C3133.84 443.686 3135.27 437.424 3136.34 430.984C3137.42 424.185 3137.95 417.387 3137.95 410.588C3137.95 396.634 3135.98 383.574 3132.05 371.408C3128.11 358.885 3122.74 347.435 3115.95 337.058C3109.86 328.471 3102.17 320.241 3092.87 312.369C3083.56 304.14 3072.29 297.699 3059.05 293.047C3047.25 289.111 3035.26 287.143 3023.09 287.143C2997.33 287.143 2974.61 294.836 2954.93 310.222C2945.63 317.379 2937.22 326.324 2929.71 337.058C2922.19 347.435 2916.65 358.706 2913.07 370.871C2911.28 376.954 2909.85 383.395 2908.77 390.193C2907.7 396.992 2907.16 403.79 2907.16 410.588C2907.16 421.681 2908.77 433.488 2911.99 446.012C2915.21 458.535 2921.12 471.059 2929.71 483.582C2936.5 493.601 2944.55 502.367 2953.86 509.881C2963.16 517.395 2974.07 523.299 2986.6 527.593C2998.41 531.887 3010.57 534.033 3023.09 534.033ZM3298.8 177.116H3419.56C3419.56 178.548 3419.2 181.589 3418.49 186.241C3417.77 190.534 3416.88 193.934 3415.8 196.438C3414.37 200.374 3412.94 204.31 3411.51 208.246C3410.08 212.182 3407.93 216.833 3405.07 222.201C3404 224.348 3402.92 226.494 3401.85 228.641C3400.78 230.43 3399.52 232.398 3398.09 234.545L3404.53 239.912C3411.33 229.894 3417.77 221.843 3423.85 215.76C3429.94 209.319 3436.74 203.058 3444.25 196.975C3451.05 191.608 3458.56 186.956 3466.79 183.02C3475.02 179.084 3483.07 176.222 3490.94 174.433C3494.88 173.717 3498.82 173.18 3502.75 172.823C3507.05 172.107 3511.34 171.749 3515.63 171.749C3526.37 171.749 3536.92 173.538 3547.3 177.116C3558.03 180.337 3567.34 185.346 3575.21 192.144C3590.95 206.457 3601.33 226.494 3606.34 252.257C3607.41 258.697 3608.31 265.496 3609.02 272.652C3609.74 279.808 3610.1 287.322 3610.1 295.194V644.061H3489.33V316.663C3489.33 312.369 3488.98 309.149 3488.26 307.002C3487.54 304.497 3486.11 301.277 3483.97 297.341C3482.54 295.194 3480.39 293.226 3477.53 291.437C3474.66 289.648 3472.16 288.575 3470.01 288.217C3466.43 287.501 3463.21 287.143 3460.35 287.143C3457.49 287.143 3454.81 287.501 3452.3 288.217C3449.8 288.575 3447.11 289.111 3444.25 289.827C3441.03 290.543 3438.35 291.616 3436.2 293.047C3434.05 294.121 3431.19 295.552 3427.61 297.341C3426.18 298.057 3424.75 298.951 3423.32 300.025C3422.24 300.74 3420.99 301.635 3419.56 302.708V644.061H3298.8V177.116Z" fill="white" fill-opacity="1"/>
</svg>
